<?xml version="1.0" encoding="UTF-8"?>
<svg xmlns="http://www.w3.org/2000/svg" xmlns:xlink="http://www.w3.org/1999/xlink" viewBox="0 0 400 400" width="400" height="400" preserveAspectRatio="xMidYMid meet" style="width: 100%; height: 100%; transform: translate3d(0px, 0px, 0px); content-visibility: visible;"><defs><clipPath id="__lottie_element_30"><rect width="400" height="400" x="0" y="0"></rect></clipPath></defs><g clip-path="url(#__lottie_element_30)"><g transform="matrix(1,0,0,1,0,0)" opacity="1" style="display: block;"><g opacity="1" transform="matrix(1,0,0,1,0,0)"><g opacity="1" transform="matrix(1,0,0,1,88.3499984741211,295.8590087890625)"><path fill="rgb(38,100,254)" fill-opacity="1" d=" M3.375999927520752,13.14799976348877 C3.375999927520752,13.14799976348877 -3.4820001125335693,13.14799976348877 -3.4820001125335693,13.14799976348877 C-3.4820001125335693,13.14799976348877 -4.901000022888184,-13.14799976348877 -4.901000022888184,-13.14799976348877 C-4.901000022888184,-13.14799976348877 4.901000022888184,-13.14799976348877 4.901000022888184,-13.14799976348877 C4.901000022888184,-13.14799976348877 3.375999927520752,13.14799976348877 3.375999927520752,13.14799976348877z"></path></g><g opacity="1" transform="matrix(1,0,0,1,313.9200134277344,295.8590087890625)"><path fill="rgb(38,100,254)" fill-opacity="1" d=" M3.375999927520752,13.14799976348877 C3.375999927520752,13.14799976348877 -3.4820001125335693,13.14799976348877 -3.4820001125335693,13.14799976348877 C-3.4820001125335693,13.14799976348877 -4.901000022888184,-13.14799976348877 -4.901000022888184,-13.14799976348877 C-4.901000022888184,-13.14799976348877 4.901000022888184,-13.14799976348877 4.901000022888184,-13.14799976348877 C4.901000022888184,-13.14799976348877 3.375999927520752,13.14799976348877 3.375999927520752,13.14799976348877z"></path></g></g><g opacity="1" transform="matrix(1,0,0,1,0,0)"><g opacity="1" transform="matrix(1,0,0,1,0,0)"><g opacity="1" transform="matrix(1,0,0,1,322.73199462890625,203.40499877929688)"><path fill="rgb(0,0,0)" fill-opacity="1" d=" M16.83300018310547,-24.70400047302246 C16.83300018310547,-24.70400047302246 6.8520002365112305,-25.617000579833984 6.8520002365112305,-25.617000579833984 C6.8520002365112305,-25.617000579833984 -16.83300018310547,-15.887999534606934 -16.83300018310547,-15.887999534606934 C-16.83300018310547,-15.887999534606934 -16.83300018310547,25.617000579833984 -16.83300018310547,25.617000579833984 C-16.83300018310547,25.617000579833984 16.83300018310547,25.617000579833984 16.83300018310547,25.617000579833984 C16.83300018310547,25.617000579833984 16.83300018310547,-24.70400047302246 16.83300018310547,-24.70400047302246z"></path></g><g opacity="1" transform="matrix(1,0,0,1,335.3500061035156,236.25599670410156)"><path fill="rgb(22,22,22)" fill-opacity="1" d=" M14.076000213623047,59.33000183105469 C14.076000213623047,59.33000183105469 -19.649999618530273,59.33000183105469 -19.649999618530273,59.33000183105469 C-19.649999618530273,59.33000183105469 -19.649999618530273,-45.5099983215332 -19.649999618530273,-45.5099983215332 C-19.649999618530273,-53.141998291015625 -13.461999893188477,-59.33000183105469 -5.829999923706055,-59.33000183105469 C-5.829999923706055,-59.33000183105469 5.829999923706055,-59.33000183105469 5.829999923706055,-59.33000183105469 C13.461999893188477,-59.33000183105469 19.649999618530273,-53.141998291015625 19.649999618530273,-45.5099983215332 C19.649999618530273,-45.5099983215332 19.649999618530273,53.75699996948242 19.649999618530273,53.75699996948242 C19.649999618530273,56.834999084472656 17.15399932861328,59.33000183105469 14.076000213623047,59.33000183105469z"></path></g></g><g opacity="1" transform="matrix(1,0,0,1,0,0)"><g opacity="1" transform="matrix(1,0,0,1,76.41799926757812,203.40499877929688)"><path fill="rgb(0,0,0)" fill-opacity="1" d=" M-16.83300018310547,-24.70400047302246 C-16.83300018310547,-24.70400047302246 -6.8520002365112305,-25.617000579833984 -6.8520002365112305,-25.617000579833984 C-6.8520002365112305,-25.617000579833984 16.83300018310547,-15.887999534606934 16.83300018310547,-15.887999534606934 C16.83300018310547,-15.887999534606934 16.83300018310547,25.617000579833984 16.83300018310547,25.617000579833984 C16.83300018310547,25.617000579833984 -16.83300018310547,25.617000579833984 -16.83300018310547,25.617000579833984 C-16.83300018310547,25.617000579833984 -16.83300018310547,-24.70400047302246 -16.83300018310547,-24.70400047302246z"></path></g><g opacity="1" transform="matrix(1,0,0,1,63.79999923706055,236.25599670410156)"><path fill="rgb(22,22,22)" fill-opacity="1" d=" M-11.725000381469727,59.33000183105469 C-11.725000381469727,59.33000183105469 19.649999618530273,59.33000183105469 19.649999618530273,59.33000183105469 C19.649999618530273,59.33000183105469 19.649999618530273,-39.680999755859375 19.649999618530273,-39.680999755859375 C19.649999618530273,-50.53300094604492 10.85200023651123,-59.33000183105469 0,-59.33000183105469 C0,-59.33000183105469 0,-59.33000183105469 0,-59.33000183105469 C-10.85200023651123,-59.33000183105469 -19.649999618530273,-50.53300094604492 -19.649999618530273,-39.680999755859375 C-19.649999618530273,-39.680999755859375 -19.649999618530273,51.40599822998047 -19.649999618530273,51.40599822998047 C-19.649999618530273,55.78200149536133 -16.10099983215332,59.33000183105469 -11.725000381469727,59.33000183105469z"></path></g></g><g opacity="1" transform="matrix(1,0,0,1,199.5749969482422,283.5509948730469)"><path fill="rgb(22,22,22)" fill-opacity="1" d=" M25.97599983215332,-12.03499984741211 C25.97599983215332,-12.03499984741211 -40.20100021362305,-12.03499984741211 -40.20100021362305,-12.03499984741211 C-40.20100021362305,-12.03499984741211 -116.1259994506836,-12.03499984741211 -116.1259994506836,-12.03499984741211 C-116.1259994506836,-12.03499984741211 -116.1259994506836,12.03499984741211 -116.1259994506836,12.03499984741211 C-116.1259994506836,12.03499984741211 -40.20100021362305,12.03499984741211 -40.20100021362305,12.03499984741211 C-40.20100021362305,12.03499984741211 25.97599983215332,12.03499984741211 25.97599983215332,12.03499984741211 C25.97599983215332,12.03499984741211 116.1259994506836,12.03499984741211 116.1259994506836,12.03499984741211 C116.1259994506836,12.03499984741211 116.1259994506836,-12.03499984741211 116.1259994506836,-12.03499984741211 C116.1259994506836,-12.03499984741211 25.97599983215332,-12.03499984741211 25.97599983215332,-12.03499984741211z"></path></g></g><g opacity="1" transform="matrix(1,0,0,1,0,0)"><g opacity="1" transform="matrix(1,0,0,1,199.5749969482422,203.40499877929688)"><path fill="rgb(22,22,22)" fill-opacity="1" d=" M93.79100036621094,-54.1609992980957 C93.79100036621094,-54.1609992980957 25.97599983215332,-54.1609992980957 25.97599983215332,-54.1609992980957 C25.97599983215332,-54.1609992980957 -40.20100021362305,-54.1609992980957 -40.20100021362305,-54.1609992980957 C-40.20100021362305,-54.1609992980957 -93.79000091552734,-54.1609992980957 -93.79000091552734,-54.1609992980957 C-101.07099914550781,-54.1609992980957 -106.9729995727539,-48.2599983215332 -106.9729995727539,-40.979000091552734 C-106.9729995727539,-40.979000091552734 -106.9729995727539,40.979000091552734 -106.9729995727539,40.979000091552734 C-106.9729995727539,48.2599983215332 -101.07099914550781,54.1609992980957 -93.79000091552734,54.1609992980957 C-93.79000091552734,54.1609992980957 -40.20100021362305,54.1609992980957 -40.20100021362305,54.1609992980957 C-40.20100021362305,54.1609992980957 25.97599983215332,54.1609992980957 25.97599983215332,54.1609992980957 C25.97599983215332,54.1609992980957 93.79100036621094,54.1609992980957 93.79100036621094,54.1609992980957 C101.0719985961914,54.1609992980957 106.9729995727539,48.2599983215332 106.9729995727539,40.979000091552734 C106.9729995727539,40.979000091552734 106.9729995727539,-40.979000091552734 106.9729995727539,-40.979000091552734 C106.9729995727539,-48.2599983215332 101.0719985961914,-54.1609992980957 93.79100036621094,-54.1609992980957z"></path></g><g opacity="1" transform="matrix(1,0,0,1,199.5749969482422,250.2689971923828)"><path fill="rgb(43,43,43)" fill-opacity="1" d=" M25.97599983215332,-21.246999740600586 C25.97599983215332,-21.246999740600586 -40.20100021362305,-21.246999740600586 -40.20100021362305,-21.246999740600586 C-40.20100021362305,-21.246999740600586 -116.1259994506836,-21.246999740600586 -116.1259994506836,-21.246999740600586 C-116.1259994506836,-21.246999740600586 -116.1259994506836,21.246999740600586 -116.1259994506836,21.246999740600586 C-116.1259994506836,21.246999740600586 -40.20100021362305,21.246999740600586 -40.20100021362305,21.246999740600586 C-40.20100021362305,21.246999740600586 25.97599983215332,21.246999740600586 25.97599983215332,21.246999740600586 C25.97599983215332,21.246999740600586 116.1259994506836,21.246999740600586 116.1259994506836,21.246999740600586 C116.1259994506836,21.246999740600586 116.1259994506836,-21.246999740600586 116.1259994506836,-21.246999740600586 C116.1259994506836,-21.246999740600586 25.97599983215332,-21.246999740600586 25.97599983215332,-21.246999740600586z"></path></g><g opacity="1" transform="matrix(1,0,0,1,199.5749969482422,224.3489990234375)"><path fill="rgb(78,78,78)" fill-opacity="1" d=" M106.3239974975586,-4.672999858856201 C106.3239974975586,-4.672999858856201 25.97599983215332,-4.672999858856201 25.97599983215332,-4.672999858856201 C25.97599983215332,-4.672999858856201 -40.20100021362305,-4.672999858856201 -40.20100021362305,-4.672999858856201 C-40.20100021362305,-4.672999858856201 -106.3239974975586,-4.672999858856201 -106.3239974975586,-4.672999858856201 C-106.3239974975586,-4.672999858856201 -116.1259994506836,4.672999858856201 -116.1259994506836,4.672999858856201 C-116.1259994506836,4.672999858856201 -40.20100021362305,4.672999858856201 -40.20100021362305,4.672999858856201 C-40.20100021362305,4.672999858856201 25.97599983215332,4.672999858856201 25.97599983215332,4.672999858856201 C25.97599983215332,4.672999858856201 116.1259994506836,4.672999858856201 116.1259994506836,4.672999858856201 C116.1259994506836,4.672999858856201 106.3239974975586,-4.672999858856201 106.3239974975586,-4.672999858856201z"></path></g><g opacity="1" transform="matrix(1,0,0,1,199.5749969482422,270.1619873046875)"><path fill="rgb(0,0,0)" fill-opacity="1" d=" M116.1259994506836,-1.3550000190734863 C116.1259994506836,-1.3550000190734863 -116.1259994506836,-1.3550000190734863 -116.1259994506836,-1.3550000190734863 C-116.1259994506836,-1.3550000190734863 -116.1259994506836,1.3550000190734863 -116.1259994506836,1.3550000190734863 C-116.1259994506836,1.3550000190734863 116.1259994506836,1.3550000190734863 116.1259994506836,1.3550000190734863 C116.1259994506836,1.3550000190734863 116.1259994506836,-1.3550000190734863 116.1259994506836,-1.3550000190734863z"></path></g></g></g><g transform="matrix(1,0,0,1,0.5959930419921875,1.4380035400390625)" opacity="1" style="display: block;"><g opacity="1" transform="matrix(1,0,0,1,164.33200073242188,215.66799926757812)"><path fill="rgb(253,171,147)" fill-opacity="1" d=" M-16.073999404907227,-2.7929999828338623 C-16.073999404907227,-2.7929999828338623 10.333999633789062,-13.331999778747559 10.333999633789062,-13.331999778747559 C10.333999633789062,-13.331999778747559 17.211999893188477,1.9800000190734863 17.211999893188477,1.9800000190734863 C17.211999893188477,1.9800000190734863 -11.199000358581543,13.331999778747559 -11.199000358581543,13.331999778747559 C-11.199000358581543,13.331999778747559 -17.211999893188477,-1.6799999475479126 -17.211999893188477,-1.6799999475479126 C-17.211999893188477,-1.6799999475479126 -16.073999404907227,-2.7929999828338623 -16.073999404907227,-2.7929999828338623z"></path></g><g opacity="1" transform="matrix(1,0,0,1,0,0)"><g opacity="1" transform="matrix(1,0,0,1,144.6909942626953,211.63099670410156)"><path fill="rgb(10,27,58)" fill-opacity="1" d=" M14.51099967956543,15.967000007629395 C14.51099967956543,15.967000007629395 5.3429999351501465,6.4120001792907715 10.628000259399414,-1.8459999561309814 C10.628000259399414,-1.8459999561309814 -14.51099967956543,-23.93000030517578 -14.51099967956543,-23.93000030517578 C-14.51099967956543,-23.93000030517578 4.629000186920166,23.93000030517578 4.629000186920166,23.93000030517578 C4.629000186920166,23.93000030517578 14.51099967956543,15.967000007629395 14.51099967956543,15.967000007629395z"></path></g><g opacity="1" transform="matrix(1,0,0,1,137.74099731445312,212.43699645996094)"><path fill="rgb(255,255,255)" fill-opacity="1" d=" M-11.579000473022461,-23.124000549316406 C-11.579000473022461,-23.124000549316406 7.560999870300293,24.736000061035156 7.560999870300293,24.736000061035156 C7.560999870300293,24.736000061035156 11.579000473022461,23.124000549316406 11.579000473022461,23.124000549316406 C11.579000473022461,23.124000549316406 -7.560999870300293,-24.736000061035156 -7.560999870300293,-24.736000061035156 C-7.560999870300293,-24.736000061035156 -11.579000473022461,-23.124000549316406 -11.579000473022461,-23.124000549316406z"></path></g><g opacity="1" transform="matrix(1,0,0,1,151.09100341796875,209.93499755859375)"><path fill="rgb(255,255,255)" fill-opacity="1" d=" M-1.8949999809265137,2.5869998931884766 C-1.8930000066757202,2.444000005722046 -1.8550000190734863,2.299999952316284 -1.777999997138977,2.1710000038146973 C-0.13500000536441803,-0.5419999957084656 0.3149999976158142,-2.7950000762939453 0.3199999928474426,-2.816999912261963 C0.4059999883174896,-3.259999990463257 0.8259999752044678,-3.5350000858306885 1.2569999694824219,-3.430999994277954 C1.687999963760376,-3.328000068664551 1.9609999656677246,-2.875 1.8819999694824219,-2.441999912261963 C1.8630000352859497,-2.3389999866485596 1.38100004196167,0.10499999672174454 -0.42100000381469727,3.0829999446868896 C-0.6520000100135803,3.4630000591278076 -1.1410000324249268,3.566999912261963 -1.5160000324249268,3.315999984741211 C-1.7630000114440918,3.1489999294281006 -1.8990000486373901,2.868000030517578 -1.8949999809265137,2.5869998931884766z"></path></g><g opacity="1" transform="matrix(1,0,0,1,147.72900390625,206.91099548339844)"><path fill="rgb(255,255,255)" fill-opacity="1" d=" M-1.8960000276565552,2.5869998931884766 C-1.8940000534057617,2.444000005722046 -1.8559999465942383,2.299999952316284 -1.7790000438690186,2.1710000038146973 C-0.13600000739097595,-0.5419999957084656 0.3149999976158142,-2.7950000762939453 0.3199999928474426,-2.816999912261963 C0.4059999883174896,-3.259999990463257 0.824999988079071,-3.5350000858306885 1.25600004196167,-3.430999994277954 C1.6859999895095825,-3.328000068664551 1.965000033378601,-2.875 1.88100004196167,-2.441999912261963 C1.8619999885559082,-2.3380000591278076 1.3799999952316284,0.10499999672174454 -0.421999990940094,3.0829999446868896 C-0.652999997138977,3.4630000591278076 -1.1419999599456787,3.566999912261963 -1.5169999599456787,3.315999984741211 C-1.7649999856948853,3.1489999294281006 -1.899999976158142,2.868000030517578 -1.8960000276565552,2.5869998931884766z"></path></g><g opacity="1" transform="matrix(1,0,0,1,144.36599731445312,203.88699340820312)"><path fill="rgb(255,255,255)" fill-opacity="1" d=" M-1.8949999809265137,2.5869998931884766 C-1.8930000066757202,2.444000005722046 -1.8550000190734863,2.299999952316284 -1.777999997138977,2.1710000038146973 C-0.13600000739097595,-0.5419999957084656 0.3140000104904175,-2.7950000762939453 0.3190000057220459,-2.816999912261963 C0.4050000011920929,-3.259999990463257 0.8240000009536743,-3.5350000858306885 1.2549999952316284,-3.430999994277954 C1.684999942779541,-3.328000068664551 1.965000033378601,-2.875999927520752 1.88100004196167,-2.441999912261963 C1.8619999885559082,-2.3380000591278076 1.3799999952316284,0.10499999672174454 -0.42100000381469727,3.0829999446868896 C-0.6510000228881836,3.4630000591278076 -1.1410000324249268,3.566999912261963 -1.5160000324249268,3.315999984741211 C-1.7640000581741333,3.1489999294281006 -1.8990000486373901,2.868000030517578 -1.8949999809265137,2.5869998931884766z"></path></g></g></g><g transform="matrix(1,0,0,1,0,0)" opacity="1" style="display: block;"><g opacity="1" transform="matrix(1,0,0,1,0,0)"><g opacity="1" transform="matrix(1,0,0,1,0,0)"><g opacity="1" transform="matrix(1,0,0,1,0,0)"><g opacity="1" transform="matrix(1,0,0,1,254.32200622558594,175.5659942626953)"><path fill="rgb(42,180,254)" fill-opacity="1" d=" M19.235000610351562,-28.354000091552734 C19.235000610351562,-28.354000091552734 -19.235000610351562,23.937000274658203 -19.235000610351562,23.937000274658203 C-19.235000610351562,23.937000274658203 8.071000099182129,28.354000091552734 8.071000099182129,28.354000091552734 C8.071000099182129,28.354000091552734 19.235000610351562,-28.354000091552734 19.235000610351562,-28.354000091552734z"></path></g><g opacity="1" transform="matrix(1,0,0,1,291.7539978027344,173.2949981689453)"><path fill="rgb(42,180,254)" fill-opacity="1" d=" M17.006999969482422,36.02299880981445 C17.006999969482422,36.02299880981445 31.488000869750977,-1.1640000343322754 31.488000869750977,-1.1640000343322754 C31.488000869750977,-1.1640000343322754 40.2859992980957,-27.115999221801758 19.464000701904297,-33.45600128173828 C8.402000427246094,-36.82400131225586 0.11299999803304672,-36.68000030517578 -6.676000118255615,-34.17900085449219 C-15.397000312805176,-30.966999053955078 -21.850000381469727,-23.476999282836914 -24.270000457763672,-14.503999710083008 C-24.270000457763672,-14.503999710083008 -33.33399963378906,19.106000900268555 -33.33399963378906,19.106000900268555 C-33.33399963378906,19.106000900268555 17.006999969482422,36.02299880981445 17.006999969482422,36.02299880981445z"></path></g></g><g opacity="1" transform="matrix(1,0,0,1,273.4729919433594,157.6820068359375)"><path stroke-linecap="butt" stroke-linejoin="miter" fill-opacity="0" stroke-miterlimit="10" stroke="rgb(10,139,208)" stroke-opacity="1" stroke-width="0.839" d=" M-2.875999927520752,6.011000156402588 C-2.875999927520752,6.011000156402588 2.875999927520752,-6.011000156402588 2.875999927520752,-6.011000156402588"></path></g></g></g><g opacity="1" transform="matrix(1,0,0,1,0,0)"><g opacity="1" transform="matrix(1,0,0,1,301.8080139160156,132.1020050048828)"><path fill="rgb(253,171,147)" fill-opacity="1" d=" M-8.043999671936035,-10.696999549865723 C-8.043999671936035,-10.696999549865723 -8.317999839782715,6.561999797821045 -8.317999839782715,6.561999797821045 C-8.366000175476074,11.781999588012695 -5.123000144958496,12.180000305175781 -0.4690000116825104,12.189000129699707 C-0.4690000116825104,12.189000129699707 -0.4690000116825104,12.189000129699707 -0.4690000116825104,12.189000129699707 C3.503999948501587,12.196999549865723 6.76800012588501,11.744999885559082 7.269000053405762,7.394000053405762 C7.269000053405762,7.394000053405762 8.317999839782715,-12.189000129699707 8.317999839782715,-12.189000129699707 C8.317999839782715,-12.189000129699707 -8.043999671936035,-10.696999549865723 -8.043999671936035,-10.696999549865723z"></path></g><g opacity="1" transform="matrix(1,0,0,1,299.875,130.05799865722656)"><path fill="rgb(10,27,58)" fill-opacity="1" d=" M-6.311999797821045,4.215000152587891 C-6.311999797821045,4.215000152587891 6.311999797821045,-4.0229997634887695 6.311999797821045,-4.0229997634887695 C6.311999797821045,-4.0229997634887695 -6.191999912261963,-4.215000152587891 -6.191999912261963,-4.215000152587891 C-6.191999912261963,-4.215000152587891 -6.311999797821045,4.215000152587891 -6.311999797821045,4.215000152587891z"></path></g></g><g opacity="1" transform="matrix(1,0,0,1,0,0)"><g opacity="1" transform="matrix(1,0,0,1,207.4340057373047,199.75599670410156)"><g opacity="1" transform="matrix(1,0,0,1,0,0)"><path fill="rgb(55,110,143)" fill-opacity="1" d=" M39.540000915527344,-31.332000732421875 C39.540000915527344,-31.332000732421875 -46.76900100708008,-0.22300000488758087 -46.76900100708008,-0.22300000488758087 C-46.76900100708008,-0.22300000488758087 -33.849998474121094,31.332000732421875 -33.849998474121094,31.332000732421875 C-33.849998474121094,31.332000732421875 46.76900100708008,3.808000087738037 46.76900100708008,3.808000087738037 C46.76900100708008,3.808000087738037 39.540000915527344,-31.332000732421875 39.540000915527344,-31.332000732421875z"></path></g></g><g opacity="1" transform="matrix(1,0,0,1,0,0)"><g opacity="1" transform="matrix(1,0,0,1,0,0)"><g opacity="1" transform="matrix(1,0,0,1,210.35800170898438,292.2330017089844)"><path fill="rgb(253,171,147)" fill-opacity="1" d=" M-8.321999549865723,13.883000373840332 C-8.321999549865723,13.883000373840332 -8.468999862670898,-14.550000190734863 -8.468999862670898,-14.550000190734863 C-8.468999862670898,-14.550000190734863 8.29800033569336,-15.348999977111816 8.29800033569336,-15.348999977111816 C8.29800033569336,-15.348999977111816 8.468999862670898,15.246000289916992 8.468999862670898,15.246000289916992 C8.468999862670898,15.246000289916992 -7.702000141143799,15.348999977111816 -7.702000141143799,15.348999977111816 C-7.702000141143799,15.348999977111816 -8.321999549865723,13.883000373840332 -8.321999549865723,13.883000373840332z"></path></g><g opacity="1" transform="matrix(1,0,0,1,0,0)"><g opacity="1" transform="matrix(1,0,0,1,197.76499938964844,306.0719909667969)"><path fill="rgb(10,27,58)" fill-opacity="1" d=" M21.97599983215332,-4.755000114440918 C21.97599983215332,-4.755000114440918 9.729999542236328,0.28200000524520874 3.9779999256134033,-7.6579999923706055 C3.9779999256134033,-7.6579999923706055 -25.77199935913086,7.6579999923706055 -25.77199935913086,7.6579999923706055 C-25.77199935913086,7.6579999923706055 25.77199935913086,7.355000019073486 25.77199935913086,7.355000019073486 C25.77199935913086,7.355000019073486 21.97599983215332,-4.755000114440918 21.97599983215332,-4.755000114440918z"></path></g><g opacity="1" transform="matrix(1,0,0,1,197.77999877929688,315.7430114746094)"><path fill="rgb(255,255,255)" fill-opacity="1" d=" M-25.756999969482422,2.315999984741211 C-25.756999969482422,2.315999984741211 25.78700065612793,2.013000011444092 25.78700065612793,2.013000011444092 C25.78700065612793,2.013000011444092 25.756999969482422,-2.315999984741211 25.756999969482422,-2.315999984741211 C25.756999969482422,-2.315999984741211 -25.78700065612793,-2.013000011444092 -25.78700065612793,-2.013000011444092 C-25.78700065612793,-2.013000011444092 -25.756999969482422,2.315999984741211 -25.756999969482422,2.315999984741211z"></path></g><g opacity="1" transform="matrix(1,0,0,1,200.33700561523438,302.40399169921875)"><path fill="rgb(255,255,255)" fill-opacity="1" d=" M1.7139999866485596,2.7090001106262207 C1.5820000171661377,2.6549999713897705 1.4620000123977661,2.566999912261963 1.3700000047683716,2.447999954223633 C-0.5540000200271606,-0.0729999989271164 -2.4860000610351562,-1.3170000314712524 -2.505000114440918,-1.3300000429153442 C-2.885999917984009,-1.5720000267028809 -2.989000082015991,-2.062999963760376 -2.7339999675750732,-2.4260001182556152 C-2.4800000190734863,-2.7899999618530273 -1.9579999446868896,-2.878000020980835 -1.5839999914169312,-2.6459999084472656 C-1.4950000047683716,-2.5910000801086426 0.6019999980926514,-1.246999979019165 2.7149999141693115,1.5190000534057617 C2.9839999675750732,1.8730000257492065 2.9019999504089355,2.367000102996826 2.5309998989105225,2.624000072479248 C2.2850000858306885,2.7929999828338623 1.9739999771118164,2.815000057220459 1.7139999866485596,2.7090001106262207z"></path></g><g opacity="1" transform="matrix(1,0,0,1,196.29200744628906,304.427001953125)"><path fill="rgb(255,255,255)" fill-opacity="1" d=" M1.7139999866485596,2.7100000381469727 C1.5820000171661377,2.6559998989105225 1.4620000123977661,2.568000078201294 1.3700000047683716,2.4489998817443848 C-0.5540000200271606,-0.07199999690055847 -2.4860000610351562,-1.315999984741211 -2.505000114440918,-1.3289999961853027 C-2.885999917984009,-1.5709999799728394 -2.989000082015991,-2.062000036239624 -2.7339999675750732,-2.424999952316284 C-2.4809999465942383,-2.7880001068115234 -1.9559999704360962,-2.88100004196167 -1.5839999914169312,-2.6449999809265137 C-1.4950000047683716,-2.5899999141693115 0.6019999980926514,-1.246000051498413 2.7149999141693115,1.5199999809265137 C2.9839999675750732,1.8739999532699585 2.9019999504089355,2.367000102996826 2.5309998989105225,2.624000072479248 C2.2850000858306885,2.7929999828338623 1.9739999771118164,2.815999984741211 1.7139999866485596,2.7100000381469727z"></path></g><g opacity="1" transform="matrix(1,0,0,1,192.2469940185547,306.45098876953125)"><path fill="rgb(255,255,255)" fill-opacity="1" d=" M1.7139999866485596,2.7100000381469727 C1.5820000171661377,2.6559998989105225 1.4620000123977661,2.568000078201294 1.3700000047683716,2.4489998817443848 C-0.5540000200271606,-0.07100000232458115 -2.4860000610351562,-1.315000057220459 -2.505000114440918,-1.3279999494552612 C-2.885999917984009,-1.5700000524520874 -2.989000082015991,-2.061000108718872 -2.7339999675750732,-2.4240000247955322 C-2.4809999465942383,-2.7869999408721924 -1.9579999446868896,-2.88100004196167 -1.5850000381469727,-2.6440000534057617 C-1.496000051498413,-2.5889999866485596 0.6019999980926514,-1.2450000047683716 2.7149999141693115,1.5199999809265137 C2.984999895095825,1.8730000257492065 2.9019999504089355,2.367000102996826 2.5309998989105225,2.624000072479248 C2.2850000858306885,2.7929999828338623 1.9739999771118164,2.815999984741211 1.7139999866485596,2.7100000381469727z"></path></g></g></g><g opacity="1" transform="matrix(1,0,0,1,245.82699584960938,243.44500732421875)"><g opacity="1" transform="matrix(1,0,0,1,0,0)"><path fill="rgb(36,92,119)" fill-opacity="1" d=" M53.49800109863281,-34.63399887084961 C53.49800109863281,-34.63399887084961 63.9739990234375,-9.52299976348877 33.722999572753906,-9.52299976348877 C33.722999572753906,-9.52299976348877 -18.253999710083008,-9.52299976348877 -18.253999710083008,-9.52299976348877 C-18.253999710083008,-9.52299976348877 -18.253999710083008,46.37200164794922 -18.253999710083008,46.37200164794922 C-18.253999710083008,46.37200164794922 -55.25199890136719,46.37200164794922 -55.25199890136719,46.37200164794922 C-55.25199890136719,46.37200164794922 -55.25199890136719,-27.634000778198242 -55.25199890136719,-27.634000778198242 C-55.25199890136719,-38.04100036621094 -46.77199935913086,-46.45399856567383 -36.3650016784668,-46.37099838256836 C-36.3650016784668,-46.37099838256836 12.593999862670898,-45.96699905395508 12.593999862670898,-45.96699905395508 C12.593999862670898,-45.96699905395508 53.49800109863281,-34.63399887084961 53.49800109863281,-34.63399887084961z"></path></g></g></g><g opacity="1" transform="matrix(1,0,0,1,0,0)"><g opacity="1" transform="matrix(1,0,0,1,268.0379943847656,201.12399291992188)"><path fill="rgb(55,110,143)" fill-opacity="1" d=" M41.22600173950195,7.900000095367432 C41.22600173950195,7.900000095367432 37.323001861572266,17.100000381469727 37.323001861572266,17.100000381469727 C30.78700065612793,32.50600051879883 11.46399974822998,37.590999603271484 -1.809000015258789,27.39900016784668 C-1.809000015258789,27.39900016784668 -41.22600173950195,-8.722000122070312 -41.22600173950195,-8.722000122070312 C-41.22600173950195,-8.722000122070312 -21.06399917602539,-32.69900131225586 -21.06399917602539,-32.69900131225586 C-21.06399917602539,-32.69900131225586 41.22600173950195,7.900000095367432 41.22600173950195,7.900000095367432z"></path></g><g opacity="1" transform="matrix(1,0,0,1,231.1529998779297,191.93600463867188)"><path stroke-linecap="butt" stroke-linejoin="miter" fill-opacity="0" stroke-miterlimit="10" stroke="rgb(36,92,119)" stroke-opacity="1" stroke-width="0.798" d=" M0.7570000290870667,5.13700008392334 C0.5400000214576721,4.938000202178955 -0.7570000290870667,-5.13700008392334 -0.7570000290870667,-5.13700008392334"></path></g></g></g></g><g transform="matrix(0.9975448846817017,0.07003007084131241,-0.07003007084131241,0.9975448846817017,11.9010009765625,-21.7755126953125)" opacity="1" style="display: block;"><g opacity="1" transform="matrix(1,0,0,1,296.364013671875,171.59500122070312)"><path fill="rgb(42,180,254)" fill-opacity="1" d=" M7.623000144958496,-20.094999313354492 C7.623000144958496,-20.094999313354492 -22.4060001373291,-2.755000114440918 -22.4060001373291,-2.755000114440918 C-29.115999221801758,1.687000036239624 -30.56100082397461,10.932000160217285 -25.527999877929688,17.209999084472656 C-25.527999877929688,17.209999084472656 -25.527999877929688,17.209999084472656 -25.527999877929688,17.209999084472656 C-21.024999618530273,22.826000213623047 -12.940999984741211,23.993999481201172 -7.033999919891357,19.878999710083008 C-7.033999919891357,19.878999710083008 22.76300048828125,2.197999954223633 22.76300048828125,2.197999954223633 C29.100000381469727,-2.2170000076293945 30.437999725341797,-11.043999671936035 25.691999435424805,-17.13800048828125 C25.691999435424805,-17.13800048828125 25.691999435424805,-17.13800048828125 25.691999435424805,-17.13800048828125 C21.365999221801758,-22.69300079345703 13.494000434875488,-23.981000900268555 7.623000144958496,-20.094999313354492z"></path></g><g opacity="1" transform="matrix(1,0,0,1,0,0)"><g opacity="1" transform="matrix(1,0,0,1,296.20001220703125,187.052001953125)"><path stroke-linecap="butt" stroke-linejoin="miter" fill-opacity="0" stroke-miterlimit="10" stroke="rgb(10,139,208)" stroke-opacity="1" stroke-width="0.839" d=" M-10.70199966430664,6.877999782562256 C-10.70199966430664,6.877999782562256 10.70199966430664,-6.877999782562256 10.70199966430664,-6.877999782562256"></path></g><g opacity="1" transform="matrix(1,0,0,1,277.4280090332031,170.1649932861328)"><path stroke-linecap="butt" stroke-linejoin="miter" fill-opacity="0" stroke-miterlimit="10" stroke="rgb(10,139,208)" stroke-opacity="1" stroke-width="0.839" d=" M-0.43700000643730164,-2.622999906539917 C-0.43700000643730164,-2.622999906539917 0.43700000643730164,2.622999906539917 0.43700000643730164,2.622999906539917"></path></g><g opacity="1" transform="matrix(1,0,0,1,284.0570068359375,159.52099609375)"><path stroke-linecap="butt" stroke-linejoin="miter" fill-opacity="0" stroke-miterlimit="10" stroke="rgb(10,139,208)" stroke-opacity="1" stroke-width="0.839" d=" M-19.93000030517578,0.5090000033378601 C-19.93000030517578,0.5090000033378601 -7.065999984741211,8.020999908447266 -7.065999984741211,8.020999908447266 C-7.065999984741211,8.020999908447266 19.93000030517578,-8.020999908447266 19.93000030517578,-8.020999908447266"></path></g></g></g><g transform="matrix(0.9975448846817017,0.07003007084131241,-0.07003007084131241,0.9975448846817017,262.3397216796875,167.3169708251953)" opacity="1" style="display: block;"><g opacity="1" transform="matrix(1,0,0,1,0,0)"><path fill="rgb(42,180,254)" fill-opacity="1" d=" M-18.584999084472656,-22.531999588012695 C-18.584999084472656,-22.531999588012695 22.524999618530273,1.475000023841858 22.524999618530273,1.475000023841858 C28.360000610351562,4.686999797821045 30.1299991607666,12.244000434875488 26.32900047302246,17.71299934387207 C26.32900047302246,17.71299934387207 26.32900047302246,17.71299934387207 26.32900047302246,17.71299934387207 C22.805999755859375,22.781999588012695 15.850000381469727,24.05500030517578 10.760000228881836,20.56100082397461 C10.760000228881836,20.56100082397461 -28.33799934387207,-6.364999771118164 -28.33799934387207,-6.364999771118164 C-28.33799934387207,-6.364999771118164 -18.584999084472656,-22.531999588012695 -18.584999084472656,-22.531999588012695z"></path></g></g><g transform="matrix(0.9975448846817017,0.07003007084131241,-0.07003007084131241,0.9975448846817017,11.9010009765625,-21.7755126953125)" opacity="1" style="display: block;"><g opacity="1" transform="matrix(1,0,0,1,244.3419952392578,140.302001953125)"><path fill="rgb(5,50,160)" fill-opacity="1" d=" M-15.949999809265137,-10.274999618530273 C-15.949999809265137,-10.274999618530273 -4.556000232696533,17.35099983215332 -4.556000232696533,17.35099983215332 C-4.556000232696533,17.35099983215332 15.949999809265137,8.993000030517578 15.949999809265137,8.993000030517578 C15.949999809265137,8.993000030517578 5.267000198364258,-17.35099983215332 5.267000198364258,-17.35099983215332 C5.267000198364258,-17.35099983215332 -15.949999809265137,-10.274999618530273 -15.949999809265137,-10.274999618530273z"></path></g><g opacity="1" transform="matrix(1,0,0,1,228.7030029296875,138.54800415039062)"><path fill="rgb(38,100,254)" fill-opacity="1" d=" M-0.3109999895095825,-8.520999908447266 C-0.3109999895095825,-8.520999908447266 -11.083000183105469,-19.104000091552734 -11.083000183105469,-19.104000091552734 C-11.083000183105469,-19.104000091552734 0.5080000162124634,7.485000133514404 0.5080000162124634,7.485000133514404 C0.5080000162124634,7.485000133514404 11.083000183105469,19.104000091552734 11.083000183105469,19.104000091552734 C11.083000183105469,19.104000091552734 -0.3109999895095825,-8.520999908447266 -0.3109999895095825,-8.520999908447266z"></path></g></g><g transform="matrix(0.9975448846817017,0.07003007084131241,-0.07003007084131241,0.9975448846817017,11.9010009765625,-21.7755126953125)" opacity="1" style="display: block;"><g opacity="1" transform="matrix(1,0,0,1,235.2530059814453,153.9550018310547)"><path fill="rgb(253,171,147)" fill-opacity="1" d=" M-6.255000114440918,6.465000152587891 C-2.684999942779541,9.920000076293945 3.009999990463257,9.824999809265137 6.464000225067139,6.255000114440918 C9.918999671936035,2.684999942779541 9.824999809265137,-3.009999990463257 6.255000114440918,-6.464000225067139 C2.684999942779541,-9.918999671936035 -3.009999990463257,-9.824999809265137 -6.465000152587891,-6.255000114440918 C-9.918999671936035,-2.684999942779541 -9.824999809265137,3.009999990463257 -6.255000114440918,6.465000152587891z"></path></g><g opacity="1" transform="matrix(1,0,0,1,240.13600158691406,151.6699981689453)"><path fill="rgb(253,171,147)" fill-opacity="1" d=" M-4.803999900817871,-6.704999923706055 C-4.803999900817871,-6.704999923706055 -2.947999954223633,-10.362000465393066 0.6859999895095825,-7.349999904632568 C4.320000171661377,-4.3379998207092285 7.3480000495910645,1.562000036239624 1.5809999704360962,8.538999557495117 C1.5809999704360962,8.538999557495117 -4.803999900817871,-6.704999923706055 -4.803999900817871,-6.704999923706055z"></path></g></g><g transform="matrix(0.9986295104026794,-0.0523359552025795,0.0523359552025795,0.9986295104026794,-6.181884765625,15.955131530761719)" opacity="1" style="display: block;"><g opacity="1" transform="matrix(1,0,0,1,307.8370056152344,101.01300048828125)"><path fill="rgb(10,27,58)" fill-opacity="1" d=" M-6.172999858856201,-10.175999641418457 C-6.172999858856201,-10.175999641418457 15.401000022888184,-11.307000160217285 6.264999866485596,10.185999870300293 C6.264999866485596,10.185999870300293 -8.520000457763672,-6.480999946594238 -8.520000457763672,-6.480999946594238 C-8.520000457763672,-6.480999946594238 -6.172999858856201,-10.175999641418457 -6.172999858856201,-10.175999641418457z"></path></g><g opacity="1" transform="matrix(1,0,0,1,285.69500732421875,113.4010009765625)"><path fill="rgb(236,138,116)" fill-opacity="1" d=" M5.208000183105469,0.009999999776482582 C5.202000141143799,2.885999917984009 2.865999937057495,5.214000225067139 -0.009999999776482582,5.208000183105469 C-2.885999917984009,5.202000141143799 -5.214000225067139,2.865999937057495 -5.208000183105469,-0.009999999776482582 C-5.202000141143799,-2.885999917984009 -2.865999937057495,-5.214000225067139 0.009999999776482582,-5.208000183105469 C2.885999917984009,-5.202000141143799 5.214000225067139,-2.865999937057495 5.208000183105469,0.009999999776482582z"></path></g><g opacity="1" transform="matrix(1,0,0,1,297.3590087890625,110.94300079345703)"><path fill="rgb(253,171,147)" fill-opacity="1" d=" M3.359999895095825,17.885000228881836 C3.359999895095825,17.885000228881836 -3.9230000972747803,17.871000289916992 -3.9230000972747803,17.871000289916992 C-9.390999794006348,17.860000610351562 -13.763999938964844,13.324000358581543 -13.572999954223633,7.859000205993652 C-13.572999954223633,7.859000205993652 -13.050000190734863,-5.624000072479248 -13.050000190734863,-5.624000072479248 C-12.810999870300293,-12.472999572753906 -7.182000160217285,-17.898000717163086 -0.32899999618530273,-17.885000228881836 C-0.32899999618530273,-17.885000228881836 -0.32899999618530273,-17.885000228881836 -0.32899999618530273,-17.885000228881836 C6.686999797821045,-17.871000289916992 13.593000411987305,-12.170999526977539 13.579000473022461,-5.15500020980835 C13.579000473022461,-5.15500020980835 12.767000198364258,8.970000267028809 12.767000198364258,8.970000267028809 C12.508000373840332,13.973999977111816 8.369999885559082,17.895000457763672 3.359999895095825,17.885000228881836z"></path></g><g opacity="1" transform="matrix(1,0,0,1,0,0)"><g opacity="1" transform="matrix(1,0,0,1,290.50201416015625,116.39900207519531)"><g opacity="1" transform="matrix(1,0,0,1,0,0)"><path stroke-linecap="round" stroke-linejoin="round" fill-opacity="0" stroke="rgb(10,27,58)" stroke-opacity="1" stroke-width="0.559" d=" M-0.44999998807907104,-1.406000018119812 C-0.44999998807907104,-1.406000018119812 -0.847000002861023,1.340000033378601 -0.847000002861023,1.340000033378601 C-0.847000002861023,1.340000033378601 0.847000002861023,1.406000018119812 0.847000002861023,1.406000018119812"></path></g></g><g opacity="1" transform="matrix(1,0,0,1,289.6080017089844,121.09400177001953)"><path stroke-linecap="round" stroke-linejoin="round" fill-opacity="0" stroke="rgb(10,27,58)" stroke-opacity="1" stroke-width="0.559" d=" M-1.2940000295639038,-0.9629999995231628 C-1.2940000295639038,-0.9629999995231628 0.8450000286102295,0.49399998784065247 1.2940000295639038,0.9629999995231628"></path></g></g><g opacity="1" transform="matrix(1,0,0,1,299.6940002441406,102.02400207519531)"><path fill="rgb(10,27,58)" fill-opacity="1" d=" M8.182999610900879,11.569000244140625 C8.182999610900879,11.569000244140625 5.873000144958496,10.305999755859375 5.873000144958496,10.305999755859375 C5.827000141143799,7.743000030517578 5.870999813079834,1.5789999961853027 3.861999988555908,-0.014000000432133675 C0.40400001406669617,-2.75600004196167 -6.004000186920166,-4.546000003814697 -15.177000045776367,-0.8510000109672546 C-15.177000045776367,-0.8510000109672546 -12.694999694824219,-11.406000137329102 -1.753000020980835,-11.567000389099121 C9.189000129699707,-11.727999687194824 15.840999603271484,0.10000000149011612 15.12399959564209,4.676000118255615 C14.406999588012695,9.251999855041504 8.182999610900879,11.569000244140625 8.182999610900879,11.569000244140625z"></path></g><g opacity="1" transform="matrix(1,0,0,1,0,0)"><g opacity="1" transform="matrix(1,0,0,1,311.95599365234375,114.92400360107422)"><path fill="rgb(253,171,147)" fill-opacity="1" d=" M5.208000183105469,0.009999999776482582 C5.202000141143799,2.885999917984009 2.865999937057495,5.214000225067139 -0.009999999776482582,5.208000183105469 C-2.885999917984009,5.202000141143799 -5.214000225067139,2.865999937057495 -5.208000183105469,-0.009999999776482582 C-5.202000141143799,-2.885999917984009 -2.865999937057495,-5.214000225067139 0.009999999776482582,-5.208000183105469 C2.885999917984009,-5.202000141143799 5.214000225067139,-2.865999937057495 5.208000183105469,0.009999999776482582z"></path></g><g opacity="1" transform="matrix(1,0,0,1,311.9410095214844,114.8489990234375)"><path stroke-linecap="round" stroke-linejoin="round" fill-opacity="0" stroke="rgb(10,27,58)" stroke-opacity="1" stroke-width="0.559" d=" M-1.8079999685287476,1.6200000047683716 C-1.8079999685287476,1.6200000047683716 -1.8009999990463257,-2.1559998989105225 1.8079999685287476,-1.5549999475479126"></path></g></g><g opacity="1" transform="matrix(1,0,0,1,294.09100341796875,94.41699981689453)"><path fill="rgb(10,27,58)" fill-opacity="1" d=" M9.465999603271484,7.5929999351501465 C9.465999603271484,7.5929999351501465 5.663000106811523,6.563000202178955 -0.04600000008940697,7.908999919891357 C-6.882999897003174,9.520999908447266 -19.160999298095703,4.590000152587891 -12.916000366210938,-4.2179999351501465 C-5.703000068664551,-14.392000198364258 14.27400016784668,-2.0859999656677246 14.619000434875488,-0.7149999737739563 C14.96399974822998,0.656000018119812 9.465999603271484,7.5929999351501465 9.465999603271484,7.5929999351501465z"></path></g></g><g transform="matrix(0.9986295104026794,-0.0523359552025795,0.047120727598667145,0.8991169929504395,-5.589127063751221,27.265621185302734)" opacity="1" style="display: block;"><g opacity="1" transform="matrix(1,0,0,1,287.2080078125,113.48600006103516)"><path fill="rgb(10,27,58)" fill-opacity="1" d=" M1.1050000190734863,0.0430000014603138 C1.0809999704360962,0.652999997138977 0.5669999718666077,1.128000020980835 -0.0430000014603138,1.1050000190734863 C-0.652999997138977,1.0809999704360962 -1.128999948501587,0.5669999718666077 -1.1050000190734863,-0.0430000014603138 C-1.0820000171661377,-0.652999997138977 -0.5669999718666077,-1.128000020980835 0.0430000014603138,-1.1050000190734863 C0.652999997138977,-1.0809999704360962 1.128999948501587,-0.5669999718666077 1.1050000190734863,0.0430000014603138z"></path></g><g opacity="1" transform="matrix(1,0,0,1,296.1409912109375,113.83100128173828)"><path fill="rgb(10,27,58)" fill-opacity="1" d=" M1.1050000190734863,0.0430000014603138 C1.0809999704360962,0.652999997138977 0.5669999718666077,1.128000020980835 -0.0430000014603138,1.1050000190734863 C-0.652999997138977,1.0809999704360962 -1.128000020980835,0.5669999718666077 -1.1050000190734863,-0.0430000014603138 C-1.0809999704360962,-0.652999997138977 -0.5669999718666077,-1.128999948501587 0.0430000014603138,-1.1050000190734863 C0.652999997138977,-1.0809999704360962 1.128000020980835,-0.5669999718666077 1.1050000190734863,0.0430000014603138z"></path></g></g><g transform="matrix(0.9986295104026794,-0.0523359552025795,0.0523359552025795,0.9986295104026794,-6.176394939422607,16.059885025024414)" opacity="1" style="display: block;"><g opacity="1" transform="matrix(1,0,0,1,297.5090026855469,108.80999755859375)"><path fill="rgb(10,27,58)" fill-opacity="1" d=" M0.024000000208616257,-1.2680000066757202 C0.024000000208616257,-1.2680000066757202 -2.809000015258789,-1.809000015258789 -2.934999942779541,-0.2849999964237213 C-2.934999942779541,-0.2849999964237213 -2.999000072479248,0.7490000128746033 -0.5230000019073486,1.1579999923706055 C1.9529999494552612,1.565999984741211 2.615000009536743,1.378999948501587 2.9040000438690186,0.4269999861717224 C3.193000078201294,-0.5249999761581421 1.3609999418258667,-1.1490000486373901 0.024000000208616257,-1.2680000066757202z"></path></g><g opacity="1" transform="matrix(1,0,0,1,287.27398681640625,108.23500061035156)"><path fill="rgb(10,27,58)" fill-opacity="1" d=" M-0.02199999988079071,-1.1749999523162842 C-0.02199999988079071,-1.1749999523162842 2.3519999980926514,-1.3009999990463257 2.453000068664551,0.14800000190734863 C2.453000068664551,0.14800000190734863 2.503000020980835,1.1269999742507935 0.42800000309944153,1.1779999732971191 C-1.6469999551773071,1.2280000448226929 -2.2960000038146973,0.8289999961853027 -2.440999984741211,0.029999999329447746 C-2.6050000190734863,-0.8759999871253967 -1.1430000066757202,-1.2430000305175781 -0.02199999988079071,-1.1749999523162842z"></path></g></g></g></svg>